<?xml version="1.0" encoding="utf-8"?>
<!-- Generator: Adobe Illustrator 16.0.0, SVG Export Plug-In . SVG Version: 6.00 Build 0)  -->
<!DOCTYPE svg PUBLIC "-//W3C//DTD SVG 1.1//EN" "http://www.w3.org/Graphics/SVG/1.1/DTD/svg11.dtd">
<svg version="1.1"
	 id="svg2" xmlns:rdf="http://www.w3.org/1999/02/22-rdf-syntax-ns#" xmlns:dc="http://purl.org/dc/elements/1.1/" xmlns:svg="http://www.w3.org/2000/svg" xmlns:cc="http://creativecommons.org/ns#"
	 xmlns="http://www.w3.org/2000/svg" xmlns:xlink="http://www.w3.org/1999/xlink" x="0px" y="0px" width="13.958px"
	 height="14.042px" viewBox="292.25 350.458 13.958 14.042" enable-background="new 292.25 350.458 13.958 14.042"
	 xml:space="preserve">
<g id="g10" transform="matrix(1.25,0,0,-1.25,0,45)">
	<g id="g12">
		<g>
			<defs>
				<rect id="SVGID_1_" x="-61.2" y="-586.8" width="612" height="612"/>
			</defs>
			<clipPath id="SVGID_2_">
				<use xlink:href="#SVGID_1_"  overflow="visible"/>
			</clipPath>
			<g id="g14" clip-path="url(#SVGID_2_)">
				<g id="g20" transform="translate(22.2383,17.9956)">
					<path id="path22" fill="#FF0000" d="M218.679-267.926l3.566,3.566c0.423,0.423,0.423,1.108,0,1.53
						c-0.423,0.423-1.108,0.423-1.53,0l-3.566-3.566l-3.566,3.566c-0.422,0.423-1.108,0.423-1.531,0
						c-0.422-0.423-0.422-1.108,0-1.531l3.566-3.565l-3.575-3.575c-0.423-0.422-0.423-1.108,0-1.53
						c0.211-0.211,0.489-0.317,0.765-0.317c0.277,0,0.554,0.106,0.766,0.317l3.574,3.574l3.566-3.566
						c0.211-0.211,0.488-0.317,0.765-0.317c0.277,0,0.554,0.106,0.765,0.317c0.423,0.423,0.423,1.109,0,1.531L218.679-267.926z"/>
				</g>
			</g>
		</g>
	</g>
</g>
</svg>
